<?xml version="1.0" standalone="no"?>
<!DOCTYPE svg PUBLIC "-//W3C//DTD SVG 20010904//EN"
 "http://www.w3.org/TR/2001/REC-SVG-20010904/DTD/svg10.dtd">
<svg version="1.0" xmlns="http://www.w3.org/2000/svg"
 width="690.000000pt" height="690.000000pt" viewBox="0 0 690.000000 690.000000"
 preserveAspectRatio="xMidYMid meet">
<metadata>
Created by potrace 1.14, written by Peter Selinger 2001-2017
</metadata>
<g transform="translate(0.000000,690.000000) scale(0.100000,-0.100000)"
fill="#000000" stroke="none">
<path d="M4160 6790 c-173 -7 -421 -45 -545 -84 -189 -58 -357 -123 -409 -159
-21 -15 -44 -27 -50 -27 -22 0 -132 -58 -163 -86 -17 -16 -69 -49 -114 -73
-46 -24 -119 -68 -164 -98 -44 -29 -107 -71 -140 -93 -109 -72 -239 -169 -320
-240 -44 -38 -103 -87 -130 -108 -82 -63 -443 -397 -538 -497 -55 -57 -201
-260 -237 -327 -36 -68 -80 -189 -116 -325 -23 -85 -26 -112 -21 -203 5 -118
21 -167 70 -218 76 -80 156 -96 299 -59 115 29 206 78 269 144 196 207 199
211 199 245 0 51 -32 96 -75 104 -21 4 -47 2 -61 -5 -23 -10 -64 -15 -64 -7 0
17 30 81 59 126 98 151 461 512 567 564 32 16 130 72 217 124 180 107 280 156
422 205 105 37 326 123 534 209 154 63 308 113 431 138 198 40 566 36 785 -9
210 -43 412 -147 456 -235 63 -126 -28 -438 -189 -644 -117 -152 -235 -281
-340 -373 -173 -151 -208 -179 -302 -244 -47 -32 -103 -71 -124 -87 -21 -15
-44 -28 -49 -28 -6 0 -24 -11 -41 -24 -36 -27 -166 -99 -166 -92 0 3 -12 -6
-27 -20 -50 -46 -463 -237 -479 -221 -2 2 12 62 31 133 88 319 125 473 155
649 51 299 70 481 70 675 0 147 -2 169 -20 197 -24 40 -76 63 -141 63 -55 0
-209 -48 -267 -83 -20 -12 -53 -30 -72 -40 -76 -39 -104 -76 -131 -172 -19
-70 -22 -106 -23 -280 -2 -206 -28 -472 -62 -620 -19 -84 -79 -277 -100 -322
-16 -34 -74 -258 -74 -285 0 -21 -48 -146 -102 -263 -22 -49 -48 -113 -58
-140 -10 -28 -31 -80 -47 -115 -17 -36 -34 -76 -38 -90 -19 -68 -134 -335
-213 -500 -49 -102 -106 -230 -125 -285 -39 -108 -139 -328 -175 -385 -12 -19
-25 -46 -29 -60 -3 -14 -15 -41 -26 -60 -11 -19 -38 -84 -60 -145 -123 -342
-135 -395 -117 -526 6 -46 16 -92 22 -104 25 -47 90 -136 120 -164 53 -49 147
-91 226 -101 88 -11 231 8 294 40 51 25 161 127 183 170 23 45 44 225 55 470
5 124 12 248 15 275 21 178 29 230 51 315 39 147 191 597 230 678 40 82 107
155 199 217 95 63 375 205 435 221 115 30 460 43 620 24 116 -15 160 -38 266
-144 74 -73 94 -100 104 -136 7 -25 16 -56 21 -70 35 -99 50 -428 24 -537 -30
-129 -39 -158 -51 -178 -6 -11 -17 -37 -24 -58 -6 -21 -32 -75 -57 -120 -26
-45 -61 -113 -78 -152 -24 -52 -49 -86 -97 -130 -97 -91 -191 -172 -303 -260
-57 -44 -144 -116 -196 -159 -113 -96 -144 -116 -407 -264 -299 -168 -442
-237 -572 -277 -63 -20 -135 -44 -160 -55 -25 -11 -70 -26 -100 -34 -72 -19
-315 -28 -461 -17 -153 11 -201 34 -319 152 -79 80 -91 97 -164 243 -72 143
-82 159 -119 177 -75 39 -163 4 -233 -93 -42 -59 -54 -87 -88 -193 -44 -143
-58 -209 -59 -280 -2 -89 32 -164 131 -297 182 -245 378 -375 611 -408 85 -12
338 -15 396 -6 68 12 137 28 200 47 111 33 414 146 520 195 28 12 131 54 230
93 193 76 457 201 530 251 25 17 90 57 145 90 114 68 205 125 363 229 62 40
151 95 198 122 48 27 109 68 135 92 52 45 164 131 271 208 35 25 90 72 122
105 33 32 90 88 126 124 37 36 91 97 120 135 47 63 165 279 207 380 38 91 88
225 88 235 0 6 11 41 24 79 30 86 34 113 41 291 6 131 4 159 -20 282 -42 221
-61 266 -218 495 -27 41 -65 82 -90 98 -23 15 -58 44 -78 64 -40 41 -104 85
-241 165 -104 61 -282 126 -343 126 -20 0 -34 4 -30 9 3 6 56 38 118 71 221
122 372 245 529 432 51 60 137 162 191 226 122 145 169 220 251 397 127 276
160 495 110 738 -31 154 -150 316 -324 444 -103 75 -285 178 -385 218 -55 21
-113 47 -130 56 -27 16 -184 67 -275 89 -80 20 -324 49 -440 53 -69 2 -195 0
-280 -3z m1066 -251 c43 -11 98 -30 121 -41 38 -19 42 -24 35 -47 -4 -14 -7
-52 -6 -83 0 -66 10 -67 -120 17 -89 57 -136 109 -136 149 0 31 5 32 106 5z
m325 -156 c73 -36 221 -186 277 -280 54 -93 69 -138 82 -249 11 -98 2 -147
-27 -158 -19 -8 -16 -12 -37 54 -46 144 -147 307 -233 375 -32 25 -74 55 -94
66 -47 28 -59 49 -66 124 -10 105 4 114 98 68z m-3736 -1733 c0 -29 -4 -36
-23 -38 -43 -6 -69 37 -40 66 7 7 24 12 38 10 21 -3 25 -8 25 -38z m127 -17
c35 -32 10 -93 -38 -93 -25 0 -54 34 -54 62 0 42 58 62 92 31z m1528 -558 c9
-11 10 -22 2 -42 -19 -49 -32 -144 -32 -237 0 -114 6 -133 42 -152 36 -19 34
-44 -6 -57 -38 -13 -85 10 -123 59 -26 35 -28 43 -27 128 2 195 86 371 144
301z m228 -263 c13 -86 -132 -190 -168 -121 -17 30 -9 40 67 98 72 54 96 60
101 23z m1534 -15 c133 -67 252 -204 353 -405 47 -94 73 -184 100 -356 15 -96
16 -120 4 -204 -14 -101 -30 -132 -69 -132 -17 0 -20 7 -20 49 0 28 -11 85
-24 128 -14 43 -31 103 -40 133 -27 100 -77 219 -119 282 -43 67 -178 205
-237 243 -47 30 -125 105 -139 132 -17 33 -14 113 6 135 25 28 126 25 185 -5z
m-3500 -2529 c33 -94 109 -226 189 -329 27 -34 27 -36 8 -47 -10 -7 -25 -12
-32 -12 -25 0 -102 66 -147 126 -101 134 -138 253 -89 287 28 20 59 10 71 -25z
m331 -447 c32 -18 56 -36 53 -38 -7 -8 -98 16 -113 29 -14 11 -18 52 -5 46 4
-2 33 -18 65 -37z"/>
</g>
</svg>
